<?xml version="1.0" standalone="no"?>
<!DOCTYPE svg PUBLIC "-//W3C//DTD SVG 20010904//EN" "http://www.w3.org/TR/2001/REC-SVG-20010904/DTD/svg10.dtd">
<!-- Created using Krita: https://krita.org -->
<svg xmlns="http://www.w3.org/2000/svg" 
    xmlns:xlink="http://www.w3.org/1999/xlink"
    xmlns:krita="http://krita.org/namespaces/svg/krita"
    xmlns:sodipodi="http://sodipodi.sourceforge.net/DTD/sodipodi-0.dtd"
    width="15.36pt"
    height="15.36pt"
    viewBox="0 0 15.36 15.36">
<defs/>
<rect id="shape0" fill="#c5946a" fill-rule="evenodd" stroke="none" stroke-width="9.6" stroke-linecap="square" stroke-linejoin="bevel" width="15.36" height="15.36"/><path id="shape1" transform="translate(12.5624995710136, 3.48749988090826)" fill="#a06050" fill-rule="evenodd" stroke="#000000" stroke-width="0.24" stroke-linecap="square" stroke-linejoin="bevel" d="M0 0.8775L1.695 0L1.6875 0.6075L1.4025 1.035L1.9125 1.9275L1.635 2.16L1.9875 2.625L0.195 2.6625L0 0.8775" sodipodi:nodetypes="ccccccccc"/><path id="shape2" transform="translate(4.84312497677177, 6.73124973851036)" fill="#a06050" fill-rule="evenodd" stroke="#000000" stroke-width="0.24" stroke-linecap="square" stroke-linejoin="miter" stroke-miterlimit="2" d="M3.6825 0L0.2625 2.80125C1.71462 3.13437 0.727078 4.2685 0 5.36625C1.67777 4.46368 3.29941 1.13953 5.26219 1.77938" sodipodi:nodetypes="cccc"/><path id="shape3" transform="translate(6.13124999145791, 1.19512856997806)" fill="#adadad" fill-rule="evenodd" stroke="none" stroke-width="0.24" stroke-linecap="square" stroke-linejoin="miter" stroke-miterlimit="2" d="M6.09562 1.31737C6.04692 1.17296 4.87851 1.55222 3.01039 1.80342C3.03257 1.8357 2.26907 3.72847 0.789375 4.33612L0 3.34987C1.07924 3.34852 2.59289 3.73482 1.87875 1.02112C3.03463 0.538297 3.71299 -0.381868 5.85562 0.171746Z" sodipodi:nodetypes="ccccccc"/><path id="shape4" transform="translate(0.658124973782242, 10.7099996313661)" fill="#a06050" fill-rule="evenodd" stroke="#000000" stroke-width="0.24" stroke-linecap="square" stroke-linejoin="miter" stroke-miterlimit="2" d="M0 2.64C1.39262 0.997325 1.80039 0.501191 2.2125 0C2.52294 0.761517 2.78575 1.53722 2.40375 2.505C0.885511 2.46252 1.08964 3.45936 0.8775 3.705C0.567517 3.35583 0.26543 3.00402 0 2.64Z" sodipodi:nodetypes="ccccc"/><path id="shape5" transform="matrix(0.931833441057192 -0.36288626059348 0.36288626059348 0.931833441057192 2.90567803747049 8.78586723411296)" sodipodi:type="arc" sodipodi:rx="0.36" sodipodi:ry="0.720000000000001" sodipodi:cx="0.360055244113133" sodipodi:cy="0.720117488510674" sodipodi:start="6.28318530717959" sodipodi:end="5.80427087081017" sodipodi:open="true" d="M0.679554 0.38833C0.595597 0.0649421 0.404075 -0.0820194 0.233511 0.0460655C0.0629465 0.17415 -0.0328841 0.536898 0.0103272 0.890884C0.0535385 1.24487 0.222168 1.47849 0.403055 1.43496C0.583942 1.39144 0.720055 1.0845 0.720055 0.720117" fill="#a06050" fill-rule="evenodd" stroke="#000000" stroke-width="0.24" stroke-linecap="square" stroke-linejoin="bevel"/><path id="shape01" transform="matrix(0.955305854552696 0.295619221731856 -0.295619221731856 0.955305854552696 4.41391189030532 8.10877450516828)" sodipodi:type="arc" sodipodi:rx="0.3170953758169" sodipodi:ry="0.6341907516338" sodipodi:cx="0.317144035963609" sodipodi:cy="0.63429423792115" sodipodi:start="6.28318530717959" sodipodi:end="5.80427087081017" sodipodi:open="true" d="M0.598565 0.342049C0.524614 0.0572023 0.355918 -0.0722443 0.205681 0.0405754C0.0554445 0.153395 -0.028965 0.472911 0.00909639 0.784709C0.0471578 1.09651 0.19569 1.30228 0.355019 1.26394C0.514348 1.22561 0.634239 0.95525 0.634239 0.634294" fill="#a06050" fill-rule="evenodd" stroke="#000000" stroke-width="0.24" stroke-linecap="square" stroke-linejoin="bevel"/><path id="shape02" transform="matrix(0.550664863064222 -0.834726427391914 0.834726427391914 0.550664863064222 1.95007362077123 9.91386773656483)" sodipodi:type="arc" sodipodi:rx="0.257284053280604" sodipodi:ry="0.514568106561209" sodipodi:cx="0.25732353502879" sodipodi:cy="0.514652073006319" sodipodi:start="6.28318530717959" sodipodi:end="5.80427087081017" sodipodi:open="true" d="M0.485662 0.277531C0.42566 0.0464127 0.288784 -0.0586174 0.166885 0.032922C0.0449865 0.124461 -0.0235015 0.383709 0.00738061 0.636695C0.0382628 0.889681 0.158778 1.05664 0.288054 1.02554C0.41733 0.994432 0.514608 0.775068 0.514608 0.514652" fill="#a06050" fill-rule="evenodd" stroke="#000000" stroke-width="0.24" stroke-linecap="square" stroke-linejoin="bevel"/><path id="shape03" transform="matrix(0.620622545767453 0.784109466646804 -0.784109466646804 0.620622545767453 4.62964901694349 10.4984824278812)" sodipodi:type="arc" sodipodi:rx="0.222534430957079" sodipodi:ry="0.720000000000001" sodipodi:cx="0.222568580171746" sodipodi:cy="0.720117488510674" sodipodi:start="6.28318530717959" sodipodi:end="5.80427087081017" sodipodi:open="true" d="M0.420067 0.38833C0.368169 0.0649421 0.24978 -0.0820194 0.144345 0.0460655C0.0389104 0.17415 -0.0203273 0.536898 0.00638376 0.890884C0.0330949 1.24487 0.137333 1.47849 0.249149 1.43496C0.360964 1.39144 0.445103 1.0845 0.445103 0.720117" fill="#a06050" fill-rule="evenodd" stroke="#000000" stroke-width="0.24" stroke-linecap="square" stroke-linejoin="bevel"/><path id="shape04" transform="matrix(0.78737200598486 0.616478161974445 -0.616478161974445 0.78737200598486 3.81564869762507 12.748667758197)" sodipodi:type="arc" sodipodi:rx="0.222534430957079" sodipodi:ry="0.577728905139931" sodipodi:cx="0.222568580171745" sodipodi:cy="0.577823178068594" sodipodi:start="6.28318530717959" sodipodi:end="5.80427087081017" sodipodi:open="true" d="M0.420067 0.311596C0.368169 0.0521096 0.24978 -0.0658124 0.144345 0.036963C0.0389104 0.139738 -0.0203273 0.430808 0.00638376 0.714846C0.0330949 0.998885 0.137333 1.18634 0.249149 1.15142C0.360964 1.11649 0.445103 0.870204 0.445103 0.577823" fill="#000000" fill-rule="evenodd" stroke="#a06050" stroke-width="0.12" stroke-linecap="square" stroke-linejoin="bevel"/><path id="shape6" transform="translate(7.00499996821589, 2.13720475268089)" fill="#959290" fill-rule="evenodd" stroke="none" stroke-width="0.24" stroke-linecap="square" stroke-linejoin="bevel" d="M5.15062 0.11842C4.5166 -0.0688352 3.19656 -0.122624 2.18625 0.641545C0.908956 1.08337 0.845092 2.54643 0 3.31155C1.56375 4.97905 2.68038 5.83377 4.68375 8.33655C5.74302 8.19286 5.84337 8.01366 6.135 7.84155C5.88211 5.30535 5.49345 2.59467 5.15062 0.11842Z" sodipodi:nodetypes="cccccc"/><path id="shape7" transform="translate(8.60624970611248, 3.91499986630999)" fill="#6d2411" fill-rule="evenodd" stroke="#000000" stroke-width="0.24" stroke-linecap="square" stroke-linejoin="bevel" d="M1.63125 4.57875L2.91375 3.765L4.14 3.24L3.0825 1.9125L3.915 0.99L3.6 0L2.1375 1.89L1.20375 2.745L0 2.8575L1.63125 4.57875" sodipodi:nodetypes="cccccccccc"/><path id="shape8" transform="translate(8.95499996108313, 7.05374996934563)" fill="none" stroke="#000000" stroke-width="0.24" stroke-linecap="square" stroke-linejoin="miter" stroke-miterlimit="2" d="M0 0.045L3.645 0" sodipodi:nodetypes="cc"/><path id="shape9" transform="translate(9.44999995893194, 7.54874996719444)" fill="none" stroke="#000000" stroke-width="0.24" stroke-linecap="square" stroke-linejoin="miter" stroke-miterlimit="2" d="M0 0.01125L2.205 0" sodipodi:nodetypes="cc"/><path id="shape10" transform="translate(9.98999995658519, 7.68)" fill="none" stroke="#000000" stroke-width="0.24" stroke-linecap="square" stroke-linejoin="miter" stroke-miterlimit="2" d="M0.4725 0L0 0.3975" sodipodi:nodetypes="cc"/><path id="shape11" transform="translate(10.1024999560963, 6.32249997252351)" fill="none" stroke="#000000" stroke-width="0.24" stroke-linecap="square" stroke-linejoin="miter" stroke-miterlimit="2" d="M0 0L0.72 0.01125" sodipodi:nodetypes="cc"/><path id="shape12" transform="translate(10.8224999529673, 6.37874997227906)" fill="none" stroke="#000000" stroke-width="0.24" stroke-linecap="square" stroke-linejoin="miter" stroke-miterlimit="2" d="M0 0L0.37125 0.21375" sodipodi:nodetypes="cc"/><path id="shape13" transform="translate(11.3849999505228, 6.1874999731102)" fill="none" stroke="#000000" stroke-width="0.24" stroke-linecap="square" stroke-linejoin="miter" stroke-miterlimit="2" d="M0.54 0L0 0.1125" sodipodi:nodetypes="cc"/><path id="shape14" transform="translate(11.1487496192908, 5.0287498282775)" fill="none" stroke="#000000" stroke-width="0.24" stroke-linecap="square" stroke-linejoin="miter" stroke-miterlimit="2" d="M0 0.9675L0.86625 0" sodipodi:nodetypes="cc"/><path id="shape15" transform="translate(7.80749948863591, 0.802618437831993)" fill="#e0e0e0" fill-rule="evenodd" stroke="none" stroke-width="0.24" stroke-linecap="square" stroke-linejoin="miter" stroke-miterlimit="2" d="M0 1.35738C1.67558 0.665689 2.7084 0.234765 3.09848 0.0646111C3.48855 -0.105543 3.79572 0.0603803 4.02 0.562381C2.17594 0.55535 1.27234 1.07855 0 1.35738Z" sodipodi:nodetypes="cccc"/><path id="shape16" transform="translate(6.0599996124595, 2.24624985936851)" fill="none" stroke="#000000" stroke-width="0.24" stroke-linecap="square" stroke-linejoin="miter" stroke-miterlimit="2" d="M0 2.25375C0.290492 2.21507 0.713663 2.241 1.08648 2.41783C1.45128 1.96318 2.18647 1.96586 2.23254 1.24531C2.26224 0.970511 2.10442 0.436551 1.7775 0" sodipodi:nodetypes="cccc"/><path id="shape17" transform="translate(7.68, 0.92716288285396)" fill="none" stroke="#000000" stroke-width="0.24" stroke-linecap="square" stroke-linejoin="miter" stroke-miterlimit="2" d="M0 1.21784C1.83676 0.251824 3.5061 -0.441357 4.275 0.332837" sodipodi:nodetypes="cc"/><path id="shape18" transform="translate(12.1649992220412, 1.34999991366672)" fill="none" stroke="#000000" stroke-width="0.24" stroke-linecap="square" stroke-linejoin="miter" stroke-miterlimit="2" d="M0 0L0.93 8.49" sodipodi:nodetypes="cc"/><path id="shape19" transform="translate(6.10499997346813, 4.76999997926994)" fill="none" stroke="#000000" stroke-width="0.24" stroke-linecap="square" stroke-linejoin="miter" stroke-miterlimit="2" d="M0 0L2.385 2.04" sodipodi:nodetypes="cc"/><path id="shape20" transform="translate(11.6249999494786, 9.73499995769242)" fill="none" stroke="#000000" stroke-width="0.24" stroke-linecap="square" stroke-linejoin="miter" stroke-miterlimit="2" d="M1.515 0C1.51383 0.54137 0.632469 0.564982 0 0.735" sodipodi:nodetypes="cc"/><path id="shape21" transform="translate(10.2149999556064, 8.50499996303791)" fill="none" stroke="#000000" stroke-width="0.24" stroke-linecap="square" stroke-linejoin="miter" stroke-miterlimit="2" d="M0 0C0.212256 0.684194 0.875882 1.31824 1.425 1.965" sodipodi:nodetypes="cc"/><path id="shape22" transform="translate(4.54874991641683, 1.29564690586098)" fill="#adadad" fill-rule="evenodd" stroke="#000000" stroke-width="0.24" stroke-linecap="square" stroke-linejoin="miter" stroke-miterlimit="2" d="M1.26844 2.34279C1.64353 1.98957 2.07597 1.77015 2.37094 1.22998C2.16391 0.806264 2.60065 0.72191 1.545 0.00185307C1.30843 -0.0388474 0.785111 0.593216 0 1.66967C0.36427 2.01843 0.603359 2.32349 1.26844 2.34279Z" sodipodi:nodetypes="ccccc"/><ellipse id="shape23" transform="matrix(0.991328387009068 0.131407873089899 -0.131407873089899 0.991328387009068 6.98878313033165 0.95910640590141)" rx="0.36" ry="0.337640076851977" cx="0.36" cy="0.337640076851977" fill="#adadad" fill-rule="evenodd" stroke="#000000" stroke-width="0.12" stroke-linecap="square" stroke-linejoin="bevel"/><ellipse id="shape05" transform="matrix(0.991328387009068 0.131407873089899 -0.131407873089899 0.991328387009068 6.39749997219705 0.569999997522832)" rx="0.219595441919936" ry="0.239227430952987" cx="0.219595441919936" cy="0.239227430952987" fill="#727b8b" fill-rule="evenodd" stroke="none" stroke-width="0.12" stroke-linecap="square" stroke-linejoin="bevel"/><ellipse id="shape06" transform="matrix(0.999808033131645 -0.0195932867442838 0.0195932867442838 0.999808033131645 5.1703014376829 3.91156046288255)" rx="0.219595441919936" ry="0.282861780280901" cx="0.219595441919936" cy="0.282861780280901" fill="#727b8b" fill-rule="evenodd" stroke-opacity="0" stroke="#000000" stroke-width="0" stroke-linecap="square" stroke-linejoin="bevel"/>
</svg>
